<?xml version="1.0" encoding="UTF-8"?>
<svg version="1.1" xmlns="http://www.w3.org/2000/svg" width="512" height="512">
<path d="M0 0 C168.96 0 337.92 0 512 0 C512 168.96 512 337.92 512 512 C343.04 512 174.08 512 0 512 C0 343.04 0 174.08 0 0 Z " fill="#FD5722" transform="translate(0,0)"/>
<path d="M0 0 C6.88030914 5.64758709 10.22129819 11.46853763 11.36328125 20.37109375 C11.76899675 29.21569164 9.27751547 36.69170901 4.328125 44.01171875 C2 46.5390625 2 46.5390625 -6 52.5390625 C35.25 52.5390625 76.5 52.5390625 119 52.5390625 C116.03 50.5590625 113.06 48.5790625 110 46.5390625 C107.50941065 43.78262372 105.79250233 40.78510037 104 37.5390625 C103.38125 36.4665625 102.7625 35.3940625 102.125 34.2890625 C99.61585467 25.92524473 99.91465287 16.37187091 104 8.5390625 C108.45583049 1.86881928 114.6876493 -3.57810941 122.70703125 -5.17578125 C132.49429392 -6.39293657 140.63745081 -5.66121411 149 -0.140625 C155.26368758 4.80012856 159.02411595 10.60512514 160 18.5390625 C160.7407173 27.56523192 160.48690373 34.16222527 155 41.5390625 C154.278125 42.6115625 153.55625 43.6840625 152.8125 44.7890625 C150 47.5390625 150 47.5390625 140 52.5390625 C225.14 53.0340625 225.14 53.0340625 312 53.5390625 C312 88.8490625 312 124.1590625 312 160.5390625 C143.04 160.5390625 -25.92 160.5390625 -200 160.5390625 C-200 125.2290625 -200 89.9190625 -200 53.5390625 C-143.9 53.2090625 -87.8 52.8790625 -30 52.5390625 C-32.97 50.5590625 -35.94 48.5790625 -39 46.5390625 C-45.31990511 40.20844569 -49.07056812 33.34536054 -49.5625 24.3515625 C-49.33074755 15.95053621 -46.42818237 9.26328825 -40.73828125 3.08203125 C-29.38277909 -7.33499966 -12.83174452 -9.37318838 0 0 Z " fill="#CAE81D" transform="translate(200,351.4609375)"/>
<path d="M0 0 C16.17 0 32.34 0 49 0 C61 24 61 24 62.5 27.50390625 C64.47097436 32.09771367 66.74775705 36.51069082 69.0390625 40.95117188 C71.04728605 44.90246669 72.72365222 48.84522465 74.23144531 53.01098633 C75.54640385 56.41408899 77.21201684 59.63140685 78.875 62.875 C79.22651123 63.56972412 79.57802246 64.26444824 79.94018555 64.98022461 C80.95662843 66.98861497 81.97778369 68.99454359 83 71 C83.939736 72.85303441 84.87764533 74.70699818 85.8125 76.5625 C86.16957031 77.26503906 86.52664062 77.96757812 86.89453125 78.69140625 C87.72702579 80.42993725 88.50282701 82.19578549 89.25 83.97265625 C91.68295167 89.70423953 94.4724313 95.27349502 97.1875 100.875 C98.3526169 103.28725209 99.51617196 105.70025643 100.6796875 108.11328125 C101.24526367 109.28584473 101.81083984 110.4584082 102.39355469 111.66650391 C104.54318318 116.12714637 106.68760074 120.59002198 108.8125 125.0625 C109.30882935 126.09576416 109.30882935 126.09576416 109.81518555 127.14990234 C112 131.76833574 112 131.76833574 112 134 C146.65 134 181.3 134 217 134 C217.66 132.35 218.32 130.7 219 129 C219.87064713 127.28515535 220.76831191 125.58385415 221.6875 123.89453125 C222.21633789 122.92 222.74517578 121.94546875 223.29003906 120.94140625 C223.85432617 119.90886719 224.41861328 118.87632812 225 117.8125 C225.58233398 116.74257812 226.16466797 115.67265625 226.76464844 114.5703125 C233.61718824 101.99918744 240.58424506 89.49373079 247.61523438 77.02172852 C250.34751849 72.17168579 253.05244008 67.30692489 255.75 62.4375 C261.76377143 51.58567238 267.88661935 40.79597009 274 30 C285.22 30 296.44 30 308 30 C305.75326633 36.74020101 305.75326633 36.74020101 303.93359375 39.70703125 C303.53487061 40.36775635 303.13614746 41.02848145 302.7253418 41.70922852 C302.300354 42.40330811 301.87536621 43.0973877 301.4375 43.8125 C297.43482278 50.46754488 293.68328344 57.20782288 290.13256836 64.11450195 C287.98525918 68.26059002 285.64404104 72.20867658 283.14038086 76.14916992 C281.65133749 78.56587679 280.40898746 81.06393566 279.1875 83.625 C276.81890089 88.43956453 274.2756082 93.10318283 271.58789062 97.74609375 C267.88187534 104.16532023 264.2848064 110.64441022 260.6875 117.125 C260.3637439 117.70752533 260.03998779 118.29005066 259.7064209 118.89022827 C256.35576984 124.91900239 253.01728924 130.95386681 249.7265625 137.015625 C249.23067627 137.92683105 248.73479004 138.83803711 248.22387695 139.77685547 C247.31182155 141.45581993 246.40381638 143.13699376 245.50073242 144.82080078 C240.90218377 153.28110901 235.91417958 159.6222222 226.49429321 162.62715149 C220.69656937 164.28435593 215.21311399 164.40225108 209.21630859 164.34057617 C207.51699692 164.34123329 207.51699692 164.34123329 205.78335571 164.34190369 C202.0715356 164.33982832 198.36017786 164.316556 194.6484375 164.29296875 C192.06198371 164.28736836 189.47552672 164.28310035 186.8890686 164.28010559 C180.79776894 164.26985584 174.70665759 164.24625747 168.61542857 164.21605712 C161.67460222 164.18239939 154.73376761 164.16599867 147.79287982 164.15097082 C133.52849909 164.11970408 119.26425537 164.06701506 105 164 C104.69485474 164.77451508 104.38970947 165.54903015 104.07531738 166.34701538 C103.00651497 168.98392651 101.78981826 171.45748573 100.46875 173.9765625 C99.74751953 175.35328125 99.74751953 175.35328125 99.01171875 176.7578125 C98.51285156 177.70398438 98.01398438 178.65015625 97.5 179.625 C97.00113281 180.57890625 96.50226563 181.5328125 95.98828125 182.515625 C94.09802416 186.11370149 92.25630517 189.61554224 90 193 C178.605 193.495 178.605 193.495 269 194 C269 203.9 269 213.8 269 224 C244.7909864 224.11583235 220.58203975 224.20501782 196.37280464 224.25906086 C185.13157838 224.28482295 173.89052765 224.31993548 162.64941406 224.37719727 C152.84962401 224.42709313 143.04996112 224.45930551 133.25004756 224.47044247 C128.06285093 224.47695071 122.87601801 224.49220557 117.68893814 224.52865028 C112.80187284 224.56270735 107.91531945 224.57303334 103.02814674 224.56553841 C101.23915508 224.56690862 99.45014547 224.57678308 97.66125679 224.59602737 C85.98783664 224.71539652 77.27198554 223.78180539 68.1875 215.8125 C61.552209 208.67524846 58.4647097 199.88878049 58.61328125 190.27734375 C59.21431884 185.18370193 61.31825209 181.38750464 63.86474609 176.99121094 C65.25058623 174.56047715 66.57203251 172.09857491 67.89453125 169.6328125 C69.95250317 165.80712818 72.01329524 161.98325862 74.09765625 158.171875 C74.5786377 157.29208984 75.05961914 156.41230469 75.55517578 155.50585938 C76.91350857 153.15000811 78.39348843 150.94231161 79.93359375 148.703125 C81.59546601 146.05870545 81.99685096 145.20311327 82.046875 141.9765625 C80.73867259 138.25697206 79.10059837 134.85167561 77.25 131.375 C74.87418328 126.87008599 72.70718582 122.36479417 70.796875 117.640625 C67.26573846 109.02991735 63.09629145 100.72666218 59 92.375 C58.19761092 90.73192011 57.39552581 89.08869174 56.59375 87.4453125 C53.49592801 81.10264836 50.39823931 74.76303296 47.1875 68.4765625 C45.24176305 64.61158374 43.64419037 60.66816538 42.07617188 56.63769531 C40.02635312 51.61359327 37.61576804 46.75607984 35.25 41.875 C33.5175 38.28625 31.785 34.6975 30 31 C15.15 30.505 15.15 30.505 0 30 C0 20.1 0 10.2 0 0 Z " fill="#FEFCFC" transform="translate(92,107)"/>
<path d="M0 0 C9.9 0 19.8 0 30 0 C30 14.85 30 29.7 30 45 C44.85 45 59.7 45 75 45 C75 54.57 75 64.14 75 74 C60.15 74 45.3 74 30 74 C30 88.85 30 103.7 30 119 C20.1 119 10.2 119 0 119 C0 104.15 0 89.3 0 74 C-14.85 74 -29.7 74 -45 74 C-45 64.43 -45 54.86 -45 45 C-30.15 45 -15.3 45 0 45 C0 30.15 0 15.3 0 0 Z " fill="#FEFEFE" transform="translate(241,92)"/>
<path d="M0 0 C6.88030914 5.64758709 10.22129819 11.46853763 11.36328125 20.37109375 C11.82293382 30.39151981 8.5916878 38.99280543 2 46.5390625 C-5.80394038 52.70962001 -14.21909021 54.51991645 -24 53.5390625 C-32.49216662 52.14463869 -38.39072317 48.37898334 -43.53515625 41.48046875 C-48.60305827 33.66437496 -50.16193553 26.87641831 -49 17.5390625 C-46.05248341 8.25942853 -40.4105377 1.4170421 -32.1015625 -3.609375 C-21.57824289 -7.87347105 -9.07682882 -6.63033981 0 0 Z " fill="#FEFCFB" transform="translate(200,351.4609375)"/>
<path d="M0 0 C6.26368758 4.94075356 10.02411595 10.74575014 11 18.6796875 C11.7407173 27.70585692 11.48690373 34.30285027 6 41.6796875 C5.278125 42.7521875 4.55625 43.8246875 3.8125 44.9296875 C-1.9475791 50.56176485 -9.52908327 53.80400171 -17.5625 53.9296875 C-25.59859145 53.83263326 -33.34198549 52.5471586 -39.328125 46.7890625 C-45.49951954 39.00272359 -49.05743552 30.71131121 -48.421875 20.65234375 C-47.05697322 11.03484139 -43.26444068 4.84967187 -35.625 -1.1328125 C-24.91507082 -8.22609893 -10.40251189 -6.86728324 0 0 Z " fill="#FEFDFC" transform="translate(349,351.3203125)"/>
<path d="M0 0 C5.38676742 3.19554 10.38053276 8.61356704 12.625 14.5 C13.45465771 22.33351231 13.73386695 30.1210516 8.625 36.5 C2.99753336 42.52258664 -1.92730635 45.48263714 -10.25 45.8125 C-17.40099465 45.65119937 -23.19525851 43.53585979 -28.375 38.5 C-33.60505784 31.62620969 -35.44488767 25.04589289 -34.375 16.5 C-32.64037057 11.10858422 -29.70990999 7.14526522 -25.375 3.5 C-24.83359375 3.03335937 -24.2921875 2.56671875 -23.734375 2.0859375 C-16.93323094 -3.02920866 -7.76365458 -3.36827816 0 0 Z " fill="#242222" transform="translate(473.375,353.5)"/>
<path d="M0 0 C3.43429523 1.83313287 6.07899134 3.7349702 8.5625 6.75 C9.4762867 11.47596659 9.3031022 16.25787539 9.3125 21.0625 C9.36148438 22.36896484 9.41046875 23.67542969 9.4609375 25.02148438 C9.51824151 34.41456747 9.51824151 34.41456747 6.82519531 38.17749023 C0.40204776 43.88834036 -5.83781588 45.34968356 -14.33203125 45.19140625 C-20.97000375 44.24789569 -26.35785968 40.56964584 -30.4375 35.3125 C-33.90343559 29.72781226 -35.55436593 23.28660483 -34.4375 16.75 C-31.96318593 9.43063374 -27.86965749 4.038105 -21.4375 -0.25 C-14.32069091 -3.6536913 -7.06942653 -3.39876276 0 0 Z " fill="#242222" transform="translate(503.4375,302.25)"/>
<path d="M0 0 C4.91421237 4.32918708 9.41278502 9.42811195 10.2734375 16.12890625 C10.59016073 23.71808208 8.62201826 29.84064937 3.578125 35.6328125 C-2.19716727 40.81815556 -8.54370351 42.70681021 -16.15234375 42.4765625 C-22.66823761 41.38611113 -28.06314337 37.68664217 -32 32.4375 C-35.67647151 26.1185646 -36.8845983 21.32313026 -36 14 C-33.95809865 7.17735955 -29.16271671 1.25158097 -22.8984375 -2.13671875 C-15.19293804 -5.14540317 -6.9781301 -4.54389867 0 0 Z " fill="#252222" transform="translate(470,8)"/>
<path d="M0 0 C4.28627752 3.15492101 7.85452249 7.37175628 9.8203125 12.33984375 C10.57903349 19.00953062 10.71653703 25.70893376 7.234375 31.62109375 C4.14792058 35.37258531 0.14713613 38.17643194 -4.1796875 40.33984375 C-11.67701339 41.02857447 -18.44598852 41.47945299 -24.63671875 36.75390625 C-30.09283204 31.75362015 -33.1933032 25.77974413 -33.6171875 18.33984375 C-33.28786136 11.60841739 -30.11867483 6.91728871 -25.2421875 2.46484375 C-17.64237651 -3.65683886 -8.73463051 -4.96848416 0 0 Z " fill="#242222" transform="translate(490.1796875,89.66015625)"/>
<path d="M0 0 C2.09668601 1.4732396 3.76064416 3.00905268 5.5 4.88671875 C6.02464844 5.38171875 6.54929687 5.87671875 7.08984375 6.38671875 C11.23632213 10.98115463 11.10868976 15.88472793 10.85546875 21.859375 C10.10883926 28.21803273 7.20514675 31.74170852 2.5 35.88671875 C-2.80222261 39.50774883 -8.05437469 41.00145874 -14.5 39.88671875 C-21.48291371 37.16036509 -26.02113818 33.08414341 -29.49609375 26.4609375 C-31.87988678 20.34840984 -31.10713859 15.65153768 -28.5625 9.69921875 C-22.73777891 -0.67202075 -11.2783788 -5.02240306 0 0 Z " fill="#252222" transform="translate(480.5,223.11328125)"/>
<path d="M0 0 C5.36364789 2.36417101 8.623113 6.41374815 11.57421875 11.38671875 C13.35451944 16.72762083 13.61775644 21.85550796 11.4453125 27.125 C7.87277462 33.42124821 4.53098331 37.06779723 -2.42578125 39.38671875 C-8.23691078 39.85998831 -13.57351713 40.24669852 -18.92578125 37.76171875 C-23.83686363 33.09619049 -27.87615775 28.71979701 -28.76171875 21.73828125 C-28.84948943 15.61188777 -28.50820536 11.13179721 -24.42578125 6.38671875 C-17.15761768 -0.75194525 -10.23740645 -2.58820099 0 0 Z " fill="#242222" transform="translate(35.42578125,35.61328125)"/>
<path d="M0 0 C5.07384082 2.38159875 8.8812664 6.38427427 12 11 C13.87664116 16.62992347 13.5650329 22.185947 11.8125 27.8125 C8.70885652 33.27063164 4.98463567 36.96949861 -1 39 C-7.4538084 39.84253373 -13.19285477 40.22351364 -18.625 36.25 C-23.10648138 32.37518204 -26.49254773 27.95358332 -27.26171875 21.9609375 C-27.55157296 16.14386334 -26.39013969 11.76283429 -23 7 C-16.32174645 -0.03537941 -9.43702947 -1.296605 0 0 Z " fill="#242222" transform="translate(418,326)"/>
<path d="M0 0 C0 12.87 0 25.74 0 39 C-7.63647043 41.86367641 -12.63955792 43.71803847 -20.0625 40.5 C-26.17377295 37.11288422 -30.89833447 31.67353508 -33 25 C-33.66907017 18.54390734 -33.86596028 12.46566799 -30 7 C-20.69297704 -3.56472877 -12.75175141 -4.78190678 0 0 Z " fill="#242222" transform="translate(512,171)"/>
<path d="M0 0 C6.18279542 3.33630665 10.12459652 7.21560267 12.30078125 13.97265625 C13.2940632 19.31154671 12.91492583 23.55390653 10.17578125 28.28515625 C6.2908878 33.70212036 1.96343027 37.47695953 -4.69921875 38.97265625 C-10.67178481 39.6362747 -14.83790193 38.33514922 -19.69921875 34.97265625 C-25.09906134 30.04962096 -27.31465545 25.37878832 -28.13671875 18.09765625 C-27.97600292 12.49403109 -25.02468394 8.32191136 -21.171875 4.4296875 C-14.73314082 -1.15710221 -8.18882396 -3.11673039 0 0 Z " fill="#252222" transform="translate(448.69921875,275.02734375)"/>
<path d="M0 0 C5.15047095 2.92869917 8.50299449 6.55723921 11.1875 11.8125 C12.05566239 18.13646721 12.08067436 24.53787667 8.1875 29.8125 C3.46627323 34.53372677 -0.78601209 38.09275006 -7.6875 38.125 C-13.54002684 37.9874957 -16.98697003 36.37723997 -21.4375 32.5625 C-26.03685435 27.2369318 -28.57336242 23.16834705 -28.1875 16.078125 C-27.17719961 9.97422679 -24.57415019 6.10662378 -19.6875 2.375 C-13.30640911 -2.04360444 -7.45350726 -2.32158423 0 0 Z " fill="#252222" transform="translate(70.8125,333.1875)"/>
<path d="M0 0 C4.75178615 2.833308 8.32785808 6.03462241 10.83984375 11.05859375 C11.0078125 12.9765625 11.0078125 12.9765625 11.02734375 15.24609375 C11.04152344 15.98214844 11.05570312 16.71820313 11.0703125 17.4765625 C10.77196503 20.81906553 9.7880213 23.84672158 8.83984375 27.05859375 C10.00443115 27.00735352 11.16901855 26.95611328 12.36889648 26.90332031 C16.72367584 26.71750397 21.07911434 26.56041505 25.43530273 26.41162109 C27.31417981 26.34350958 29.19279822 26.26779311 31.07104492 26.18408203 C33.7840045 26.06453032 36.49674326 25.97311518 39.2109375 25.88671875 C40.0394371 25.84419983 40.86793671 25.80168091 41.72154236 25.75787354 C47.77085399 25.60422814 52.64784746 26.86065525 57.83984375 30.05859375 C58.33484375 31.04859375 58.33484375 31.04859375 58.83984375 32.05859375 C49.42555412 32.17457733 40.01151141 32.26335407 30.59666252 32.31765461 C26.22466626 32.34371978 21.85315973 32.37906064 17.48144531 32.43579102 C13.26037934 32.49022206 9.03978362 32.52003746 4.81839371 32.53297997 C3.21002934 32.54220008 1.60168996 32.56020535 -0.00647354 32.58724403 C-2.26415332 32.62368466 -4.51990425 32.62853325 -6.77783203 32.6262207 C-8.06134552 32.63732376 -9.34485901 32.64842682 -10.66726685 32.65986633 C-15.30772827 31.86104853 -16.85948377 30.3740012 -20.16015625 27.05859375 C-23.16233008 21.85482578 -24.12021795 16.95919766 -23.16015625 11.05859375 C-18.83898754 2.41625632 -9.79783742 -4.26994361 0 0 Z " fill="#242121" transform="translate(254.16015625,372.94140625)"/>
<path d="M0 0 C4.82440762 2.14418117 7.68651033 5.00604786 10.69921875 9.296875 C12.69296763 15.27812163 12.69830451 21.97121522 10.01171875 27.734375 C7.15610298 32.65126272 3.21064576 35.82716113 -2.30078125 37.296875 C-8.33606701 37.87407515 -13.12977593 37.78429719 -18.30078125 34.296875 C-22.99104435 30.3701431 -25.71334355 26.27282527 -26.62109375 20.12890625 C-26.91532969 14.43053683 -25.82582417 9.84132222 -22.30078125 5.296875 C-15.83058405 -0.99881481 -8.64989708 -2.64343205 0 0 Z " fill="#242222" transform="translate(434.30078125,60.703125)"/>
<path d="M0 0 C22.50580046 0 22.50580046 0 27.9609375 4.68359375 C28.42757812 5.26238281 28.89421875 5.84117187 29.375 6.4375 C29.85710937 7.01371094 30.33921875 7.58992188 30.8359375 8.18359375 C34.15553506 13.36350269 33.42040163 20.09851302 33 26 C31.28347789 31.45248198 27.60380327 34.7878009 23 38 C20.11734851 38.96088383 18.32337729 39.11670941 15.33203125 39.09765625 C14.52741455 39.09515869 13.72279785 39.09266113 12.89379883 39.09008789 C11.36855591 39.07643188 11.36855591 39.07643188 9.8125 39.0625 C4.9553125 39.0315625 4.9553125 39.0315625 0 39 C0 26.13 0 13.26 0 0 Z " fill="#4A4C42" transform="translate(198,432)"/>
<path d="M0 0 C5.99231944 2.21734144 9.8234563 6.38031319 13.078125 11.79296875 C15.18653606 16.84064777 14.80825056 23.1940847 13.3125 28.38671875 C10.61080719 34.29667177 6.61176544 37.27860914 1.25 40.8125 C-3.17798273 42.43041677 -7.33814101 42.72486222 -12 42 C-13.98 41.01 -15.96 40.02 -18 39 C-18 26.79 -18 14.58 -18 2 C-12.0949879 -0.95250605 -6.49795335 -0.71230361 0 0 Z " fill="#242222" transform="translate(18,301)"/>
<path d="M0 0 C4.29 0 8.58 0 13 0 C13.96514214 2.64351825 14.92217807 5.28954137 15.875 7.9375 C16.14441406 8.67291016 16.41382813 9.40832031 16.69140625 10.16601562 C16.95566406 10.90400391 17.21992188 11.64199219 17.4921875 12.40234375 C17.85352783 13.39995728 17.85352783 13.39995728 18.22216797 14.41772461 C19.36726176 18.2192491 20.1387334 22.12430031 21 26 C23.97 17.42 26.94 8.84 30 0 C34.29 0 38.58 0 43 0 C43 12.87 43 25.74 43 39 C40.36 39 37.72 39 35 39 C34.505 26.13 34.505 26.13 34 13 C33.443125 14.876875 32.88625 16.75375 32.3125 18.6875 C30.19334029 25.5994546 27.68068431 32.28730281 25 39 C22.69 39 20.38 39 18 39 C16.87255207 36.12595407 15.74848857 33.25059574 14.625 30.375 C14.30789063 29.56675781 13.99078125 28.75851562 13.6640625 27.92578125 C13.3546875 27.13300781 13.0453125 26.34023438 12.7265625 25.5234375 C12.44377441 24.80075684 12.16098633 24.07807617 11.86962891 23.33349609 C10.84367987 20.58054244 9.92904926 17.78714778 9 15 C8.67 22.92 8.34 30.84 8 39 C5.36 39 2.72 39 0 39 C0 26.13 0 13.26 0 0 Z " fill="#474842" transform="translate(246,432)"/>
<path d="M0 0 C4.94754234 2.84458286 7.84443678 7.09581034 9.625 12.4375 C10.40971904 18.959673 9.40534234 24.02473711 5.625 29.4375 C1.14602509 33.8016294 -3.45261456 35.72160919 -9.6875 35.875 C-15.41181924 35.73632201 -19.24151469 34.44941221 -23.375 30.4375 C-27.15462451 25.67148567 -29.25923962 20.83973843 -28.8515625 14.703125 C-27.60068413 8.75632618 -24.66705267 3.96667428 -19.75 0.375 C-13.53790048 -3.00063144 -6.41478343 -2.78377394 0 0 Z " fill="#252222" transform="translate(458.375,143.5625)"/>
<path d="M0 0 C3.95478251 2.91900614 7.41112181 6.50974362 9.625 10.9375 C10.12678565 17.38351568 10.58729274 23.52236659 6.625 28.9375 C1.60322731 33.74093475 -2.29649951 35.97521677 -9.1875 36.375 C-14.65932827 36.25267895 -18.30323999 34.54848348 -22.375 30.9375 C-27.21694676 24.72987594 -28.01080582 19.60315886 -27.375 11.9375 C-25.57005572 6.41649398 -21.92877265 3.30619447 -17.375 -0.0625 C-12.3969279 -2.55153605 -5.14098912 -1.61845954 0 0 Z " fill="#242221" transform="translate(123.375,364.0625)"/>
<path d="M0 0 C0 15.84 0 31.68 0 48 C-10.20568292 48 -14.01221765 47.87669588 -20.75390625 41.28515625 C-26.77588649 34.65372259 -27.63545705 28.51768818 -27.375 19.671875 C-26.67633585 12.8307885 -23.44553912 9.17165198 -18.5625 4.625 C-12.38560814 -0.26337894 -8.14762684 0 0 0 Z " fill="#232222" transform="translate(512,33)"/>
<path d="M0 0 C4.47413236 2.46605721 7.51255818 5.77511637 9.8125 10.375 C10.53589661 17.41922273 10.25080792 23.62012979 5.8125 29.375 C-0.5343817 34.42659972 -6.2786762 35.1908099 -14.1875 34.375 C-19.43665088 31.79814411 -22.67476459 28.17356051 -25.4375 23.0625 C-27.18976061 16.78356614 -26.63933177 11.84207335 -23.53125 6.203125 C-17.94283791 -1.3997147 -8.57657874 -3.9146884 0 0 Z " fill="#252222" transform="translate(27.1875,171.625)"/>
<path d="M0 0 C5.95307323 2.6445159 10.89056218 7.55065562 13.80859375 13.38671875 C13.90544463 15.5516207 13.93838813 17.71965678 13.93359375 19.88671875 C13.93746094 21.6346875 13.93746094 21.6346875 13.94140625 23.41796875 C13.80859375 26.38671875 13.80859375 26.38671875 12.80859375 28.38671875 C-0.39140625 28.38671875 -13.59140625 28.38671875 -27.19140625 28.38671875 C-29.20465764 22.34696458 -29.09072467 16.38834372 -26.25390625 10.63671875 C-20.61231829 1.4934555 -10.35763701 -2.89866134 0 0 Z " fill="#232120" transform="translate(388.19140625,376.61328125)"/>
<path d="M0 0 C6.17994284 3.18175275 9.38988361 6.41183833 11.6171875 13.09375 C12.31599323 19.96533967 10.91089773 23.72374974 6.6171875 29.09375 C3.84838082 32.33527977 2.03796296 33.89050289 -2.22265625 34.5 C-9.91215208 34.72811854 -15.02674634 33.53472731 -20.7578125 28.28125 C-24.41092618 23.7821521 -24.0960942 18.92328739 -23.8359375 13.34765625 C-23.26525369 9.24955612 -22.31815235 7.02908985 -19.3828125 4.09375 C-13.3734426 -0.44393748 -7.31697649 -2.78285007 0 0 Z " fill="#252222" transform="translate(47.3828125,252.90625)"/>
<path d="M0 0 C4.66435223 2.63789209 7.93399783 5.96520065 9.5859375 11.1171875 C10.69892262 17.55163272 9.30501563 22.79214381 5.5859375 28.1171875 C1.34804242 32.2464186 -2.38384577 33.88421181 -8.2265625 34.5546875 C-13.17918628 34.41425393 -16.70120724 32.27846559 -20.4140625 29.1171875 C-24.38028643 24.03228502 -25.8406056 19.88562006 -25.7578125 13.53125 C-24.97800456 8.05487149 -21.69949986 4.37127273 -17.8515625 0.6171875 C-12.09598918 -1.8943354 -5.95142683 -2.17641175 0 0 Z " fill="#252222" transform="translate(383.4140625,32.8828125)"/>
<path d="M0 0 C4.65071148 2.01087906 7.46118409 4.74081073 9.890625 9.1796875 C11.66175386 13.79115204 11.5554183 17.93096113 10.00390625 22.59375 C8.03762096 26.93730645 5.81978365 29.77037106 1.73828125 32.38671875 C-4.07557351 34.32467034 -10.18280651 34.40727567 -15.69921875 31.69921875 C-19.46449927 28.30128267 -23.02313855 24.99936748 -23.5 19.77734375 C-23.74906633 9.23790532 -23.74906633 9.23790532 -19.26171875 4.38671875 C-13.26754721 -0.89386094 -7.84624491 -2.12756554 0 0 Z " fill="#242222" transform="translate(115.26171875,16.61328125)"/>
<path d="M0 0 C4.74658052 3.2001428 8.09130407 7.30440188 10.51171875 12.4609375 C11.07421875 15.3984375 11.07421875 15.3984375 11.07421875 22.3984375 C-4.10578125 22.3984375 -19.28578125 22.3984375 -34.92578125 22.3984375 C-34.92578125 14.18948591 -34.57111802 10.27208346 -29.0546875 4.41015625 C-20.56840019 -3.33819303 -10.55907147 -5.34588538 0 0 Z " fill="#222020" transform="translate(44.92578125,382.6015625)"/>
<path d="M0 0 C5.10383051 2.986686 8.94376685 6.30005056 10.859375 12.046875 C11.39179585 18.329441 10.61539412 22.86655506 6.859375 28.046875 C0.81501414 32.85769283 -4.58995466 33.89500022 -12.140625 33.046875 C-17.45627658 30.38904921 -21.24298508 26.73979475 -23.140625 21.046875 C-23.9176061 14.79772697 -23.48287754 9.93123487 -19.75390625 4.7421875 C-14.58986312 -0.6844341 -7.01644428 -3.12411023 0 0 Z " fill="#252222" transform="translate(330.140625,2.953125)"/>
<path d="M0 0 C9 0 9 0 11.29101562 1.98779297 C12.09055664 3.35121826 12.09055664 3.35121826 12.90625 4.7421875 C13.504375 5.72574219 14.1025 6.70929688 14.71875 7.72265625 C15.3065625 8.76292969 15.894375 9.80320312 16.5 10.875 C17.11875 11.90753906 17.7375 12.94007813 18.375 14.00390625 C20.33525484 17.29249166 22.28736121 20.57472242 24 24 C24.33 16.08 24.66 8.16 25 0 C27.97 0 30.94 0 34 0 C34 12.87 34 25.74 34 39 C24 39 24 39 21.703125 37.13574219 C20.98382813 35.85425293 20.98382813 35.85425293 20.25 34.546875 C19.43208984 33.15275391 19.43208984 33.15275391 18.59765625 31.73046875 C18.07042969 30.74691406 17.54320312 29.76335937 17 28.75 C16.44183594 27.78191406 15.88367188 26.81382812 15.30859375 25.81640625 C13.08401239 21.93008941 11.00280613 18.00561226 9 14 C8.67 22.25 8.34 30.5 8 39 C5.36 39 2.72 39 0 39 C0 26.13 0 13.26 0 0 Z " fill="#494B42" transform="translate(329,432)"/>
<path d="M0 0 C4.51846921 3.04505534 8.13526194 6.71828583 9.875 11.9375 C10.27283285 17.20878523 9.70150536 20.4540777 6.875 24.9375 C3.23979247 29.14668766 0.3469562 31.51880398 -5.23046875 32.19140625 C-10.72510542 32.47672239 -13.83122927 31.63213993 -18.125 27.9375 C-22.66172319 22.91032025 -23.48316104 19.04614202 -23.40625 12.44140625 C-22.85245653 7.51110603 -20.10876992 4.82529237 -16.5625 1.625 C-11.40059983 -1.9486232 -5.77574369 -1.96375285 0 0 Z " fill="#252222" transform="translate(56.125,121.0625)"/>
<path d="M0 0 C5.46725581 2.3594431 8.60751872 5.86356054 10.8046875 11.38671875 C11.89528138 15.99939451 11.07347118 19.4610837 8.8046875 23.57421875 C5.52682747 28.25555688 1.42663126 31.60565073 -4.2421875 32.828125 C-9.67807117 33.15469941 -12.92441202 31.4256287 -17.1953125 28.38671875 C-21.58338152 23.65222323 -22.50797928 19.94075918 -22.40625 13.6640625 C-21.95163242 8.75587642 -19.76287375 5.68950359 -16.1328125 2.57421875 C-10.98796891 -1.25704775 -6.22098915 -1.73789199 0 0 Z " fill="#252222" transform="translate(425.1953125,196.61328125)"/>
<path d="M0 0 C13.86 0 27.72 0 42 0 C42 12.68219178 42 12.68219178 36.57421875 18.5390625 C30.64485177 23.77896821 24.98130184 24.58137119 17.296875 24.43359375 C11.10998989 23.61991573 7.17264214 20.72986095 3.33984375 15.9140625 C-0.37427083 10.01700035 0 7.83946134 0 0 Z " fill="#232222" transform="translate(36,0)"/>
<path d="M0 0 C3.87680808 1.93004885 6.32678924 4.54742473 8.21875 8.34765625 C9.84295223 13.27827015 9.42656796 17.74642521 7.75 22.58984375 C4.9002053 26.76954265 1.76907029 29.70848699 -3.125 31.33984375 C-7.79194522 31.88209834 -11.20271048 31.80968935 -15.4375 29.65234375 C-19.55747113 26.10725231 -22.70385147 22.90234608 -23.36328125 17.32421875 C-23.56012194 11.39827812 -22.69041736 8.12500916 -19.125 3.33984375 C-13.77598381 -1.74824483 -6.89593435 -2.14230313 0 0 Z " fill="#242222" transform="translate(86.125,69.66015625)"/>
<path d="M0 0 C3.63 0 7.26 0 11 0 C14.74805609 8.61053286 17.90052474 17.32511076 20.8125 26.25 C21.21919922 27.48363281 21.62589844 28.71726562 22.04492188 29.98828125 C23.03413674 32.99083931 24.01908415 35.99472267 25 39 C22.03 39 19.06 39 16 39 C14.515 34.545 14.515 34.545 13 30 C8.38 30.33 3.76 30.66 -1 31 C-1.99 33.64 -2.98 36.28 -4 39 C-6.97 39 -9.94 39 -13 39 C-8.66666667 26 -4.33333333 13 0 0 Z " fill="#484942" transform="translate(160,432)"/>
<path d="M0 0 C4.10379698 -0.14489234 8.20693967 -0.23393542 12.3125 -0.3125 C13.47974609 -0.35439453 14.64699219 -0.39628906 15.84960938 -0.43945312 C16.96787109 -0.45556641 18.08613281 -0.47167969 19.23828125 -0.48828125 C20.7857605 -0.52755737 20.7857605 -0.52755737 22.36450195 -0.56762695 C25 0 25 0 26.83300781 2.34912109 C28.92913213 7.11056835 28.62796495 11.90727325 28 17 C26.0171377 21.03654111 23.83420139 23.6500056 20 26 C14.47711441 27.84096186 9.00983631 27.91011456 3.6875 25.5 C-0.68807157 21.42970087 -4.21501353 17.10838045 -4.5625 10.9375 C-3.89769795 6.28388565 -2.40504708 3.98291097 0 0 Z " fill="#242222" transform="translate(178,0)"/>
<path d="M0 0 C4.64342047 2.30673146 7.23989548 5.56755909 8.94140625 10.33984375 C9.78702952 16.15350374 8.36314733 20.65906441 4.94140625 25.33984375 C1.38224546 28.71018964 -2.29830879 29.60776989 -7.12109375 29.83984375 C-11.82283866 29.61153444 -14.56975333 28.66254891 -18.05859375 25.33984375 C-21.37563586 20.56122996 -22.912355 16.20945236 -22.05859375 10.33984375 C-18.38655759 0.56150027 -9.90477696 -3.1762947 0 0 Z " fill="#262222" transform="translate(396.05859375,249.66015625)"/>
<path d="M0 0 C4.85978996 2.29735525 7.59883576 5.19767151 10 10 C10.70158971 15.43732024 10.07793617 19.42749445 7.390625 24.234375 C4.42717214 27.99696122 0.54066945 29.54325044 -4.0859375 30.375 C-9.20758124 30.6889705 -12.19081293 29.28975247 -16 26 C-19.42917072 22.30010527 -20.29969749 19.4207651 -20.5 14.5 C-20.30691801 9.59971232 -19.41113589 6.68771447 -16 3 C-11.49234607 -1.09786721 -5.75389187 -0.75308291 0 0 Z " fill="#242222" transform="translate(98,285)"/>
<path d="M0 0 C4.69655713 2.31322963 7.38995682 5.40834757 9.14453125 10.33984375 C9.84747613 15.26045788 9.10849749 18.64927003 6.46875 22.76171875 C3.65608208 26.11368877 0.41500407 27.91385562 -3.875 28.71875 C-9.02843397 29.02421167 -12.05813864 27.70565908 -15.85546875 24.33984375 C-18.54303666 20.96786413 -19.74376261 18.12178672 -20.35546875 13.83984375 C-19.64972837 8.89966108 -18.15361968 5.27393117 -14.27734375 2.01171875 C-9.68871576 -0.92334961 -5.30789141 -1.88849189 0 0 Z " fill="#272322" transform="translate(149.85546875,315.66015625)"/>
<path d="M0 0 C3.88446678 2.58964452 6.69907021 5.64814041 8.8125 9.875 C9.35600346 16.17964011 8.53587498 20.66458052 4.8125 25.875 C1.33431266 28.96672208 -0.40014802 29.8242031 -5.0625 30.125 C-6.09375 30.0425 -7.125 29.96 -8.1875 29.875 C-6.85056612 26.27556264 -5.19269395 23.14374082 -3.1875 19.875 C-4.47527344 19.88660156 -5.76304687 19.89820313 -7.08984375 19.91015625 C-8.76822772 19.9195327 -10.44661326 19.92863305 -12.125 19.9375 C-13.40020508 19.95006836 -13.40020508 19.95006836 -14.70117188 19.96289062 C-15.51005859 19.96611328 -16.31894531 19.96933594 -17.15234375 19.97265625 C-17.9012085 19.97789307 -18.65007324 19.98312988 -19.42163086 19.98852539 C-21.1875 19.875 -21.1875 19.875 -22.1875 18.875 C-22.58693291 13.08322288 -22.27161098 8.9830588 -19.1875 3.875 C-13.28281423 -1.50030015 -7.58183513 -2.67594181 0 0 Z " fill="#252322" transform="translate(404.1875,116.125)"/>
<path d="M0 0 C3.93244436 2.04953668 6.40422343 4.13204365 7.96875 8.2734375 C8.71753726 13.96843917 8.221472 18.3943545 4.96875 23.2734375 C0.77591556 27.07319371 -3.26779937 27.63095141 -8.74609375 27.55078125 C-12.36869393 27.11111525 -14.35881608 25.69135391 -17.03125 23.2734375 C-20.32924116 18.54631684 -20.93504228 13.87694966 -20.03125 8.2734375 C-15.90667187 0.02428124 -8.79129945 -3.14458019 0 0 Z " fill="#252222" transform="translate(77.03125,204.7265625)"/>
<path d="M0 0 C14.19 0 28.38 0 43 0 C38.78317555 12.65047336 38.78317555 12.65047336 31.375 16.8125 C25.43212071 19.57419096 20.12421735 20.24753906 13.8046875 18.3359375 C7.44887457 15.55677975 2.6402245 10.41549879 0 4 C0 2.68 0 1.36 0 0 Z " fill="#252222" transform="translate(384,0)"/>
<path d="M0 0 C0.74443359 0.58007812 0.74443359 0.58007812 1.50390625 1.171875 C5.84883147 4.50270951 10.18629161 7.39257462 15 10 C15 10.33 15 10.66 15 11 C-23.28 11 -61.56 11 -101 11 C-101 9.35 -101 7.7 -101 6 C-84.5 6 -68 6 -51 6 C-50.67 5.34 -50.34 4.68 -50 4 C-49.34 4.33 -48.68 4.66 -48 5 C-41.96084865 5.47474133 -36.70940849 4.98588121 -31 3 C-31.33 3.66 -31.66 4.32 -32 5 C-27.79203314 5.14570522 -23.58471834 5.23421087 -19.375 5.3125 C-18.18519531 5.35439453 -16.99539062 5.39628906 -15.76953125 5.43945312 C-8.44589219 5.72087115 -8.44589219 5.72087115 -2.1640625 2.48046875 C-1.44992188 1.66191406 -0.73578125 0.84335937 0 0 Z " fill="#CD461B" transform="translate(157,394)"/>
<path d="M0 0 C4.33457353 3.12492511 6.25139031 6.66003828 7.25 11.875 C6.21903166 17.48804985 3.48317889 21.59074083 -1.0625 25 C-5.41112483 26.25441101 -8.97139789 26.25905323 -13.3125 24.9375 C-17.17884621 21.89378065 -19.78017802 18.70659799 -20.71875 13.82421875 C-20.91657783 9.18350759 -20.4898017 6.54814957 -17.4375 2.9375 C-12.46156948 -2.25477532 -6.65484813 -2.13457393 0 0 Z " fill="#262322" transform="translate(249.3125,29.0625)"/>
<path d="M0 0 C8.89553379 2.96517793 12.90649673 4.83239633 17.2734375 12.98046875 C19.12250984 18.12009455 18.73882415 23.76901775 16.75 28.8125 C13.2770209 35.13828336 9.77434859 38.51004436 3 41 C2.01 41 1.02 41 0 41 C0 27.47 0 13.94 0 0 Z " fill="#242222" transform="translate(0,86)"/>
<path d="M0 0 C5.15055847 1.78288562 7.56506082 4.13012164 10 9 C10.62499339 13.37495374 10.34845954 15.375176 8.1875 19.25 C3.83505155 24.72164948 3.83505155 24.72164948 0 26 C-5.71592544 26.53923825 -8.55802329 25.63434458 -13 22 C-16.59735573 18.05147382 -16.55674648 14.80249263 -16.42578125 9.6328125 C-16 7 -16 7 -13.6875 3.9375 C-8.90364203 0.48867216 -5.8927035 -0.70444084 0 0 Z " fill="#262322" transform="translate(349,88)"/>
<path d="M0 0 C3.99359458 1.3811839 6.54985009 3.33203561 8.9375 6.875 C10.29922325 10.88006839 10.83743383 13.78576818 9.30859375 17.828125 C7.6778843 21.07589779 6.25765756 22.81846854 3.25 24.9375 C-0.62795429 26.20529275 -4.011217 26.97418354 -8 26 C-11.3192013 23.91273303 -14.23063304 21.53873393 -16 18 C-16.62133059 13.69787555 -16.97036679 9.66604513 -14.73046875 5.8203125 C-10.33378023 0.66409871 -6.91130507 -0.88574487 0 0 Z " fill="#262222" transform="translate(164,50)"/>
<path d="M0 0 C0 8.58 0 17.16 0 26 C-7.92 26 -15.84 26 -24 26 C-22.94551709 16.50965383 -21.06918463 11.41594802 -14.0625 5.125 C-9.45395733 1.9272357 -5.74620232 0 0 0 Z " fill="#222020" transform="translate(512,379)"/>
<path d="M0 0 C3.18500291 1.62145603 5.22111096 2.97328264 7.375 5.8125 C8.645452 10.25908198 8.37897786 13.90517508 6.875 18.25 C4.53854761 21.67679683 2.91986436 22.66872531 -1 24 C-4.59035145 24.64497331 -7.58701306 24.82398807 -10.80859375 22.9453125 C-13.77955226 20.53719745 -15.78896654 18.67620864 -16.2734375 14.828125 C-16.58137554 7.01123631 -16.58137554 7.01123631 -13.625 3.4375 C-9.31597346 -0.56373893 -5.71418497 -0.70106807 0 0 Z " fill="#252222" transform="translate(298,59)"/>
<path d="M0 0 C2.41430664 -0.35644531 2.41430664 -0.35644531 5.41015625 -0.328125 C7.01793945 -0.32039063 7.01793945 -0.32039063 8.65820312 -0.3125 C10.34333008 -0.2815625 10.34333008 -0.2815625 12.0625 -0.25 C13.75342773 -0.24226563 13.75342773 -0.24226563 15.47851562 -0.234375 C23.8462291 -0.1537709 23.8462291 -0.1537709 25 1 C25.56707887 5.93637504 25.5143184 9.91201876 23.375 14.4375 C19.58909942 18.52228747 16.55343557 19.77808063 11.0625 20.5625 C6.79445018 20.40685135 4.50799293 18.52364 1.4453125 15.703125 C-2.01452273 11.62612997 -2.38630583 8.3117051 -2 3 C-1.34 2.01 -0.68 1.02 0 0 Z " fill="#252222" transform="translate(266,331)"/>
<path d="M0 0 C0.33 0 0.66 0 1 0 C1 1.98 1 3.96 1 6 C8.25925214 5.8918556 15.51841779 5.77910077 22.77750969 5.66066074 C26.14916955 5.60578902 29.52083843 5.55243168 32.89257812 5.50268555 C36.7800219 5.44454616 40.66734592 5.38097987 44.5546875 5.31640625 C45.74988007 5.29969376 46.94507263 5.28298126 48.17648315 5.26576233 C54.83405399 5.14932642 61.38826786 4.80053602 68 4 C68 4.33 68 4.66 68 5 C74.27 5 80.54 5 87 5 C86.67 6.98 86.34 8.96 86 11 C57.29 11 28.58 11 -1 11 C-0.67 7.37 -0.34 3.74 0 0 Z " fill="#CE461B" transform="translate(402,394)"/>
<path d="M0 0 C3.63467079 1.62400184 4.77408696 2.66113044 7 6 C7.66535838 10.06919178 7.92277334 14.22543589 5.984375 17.953125 C3.8540259 20.59681123 2.23432752 21.92189083 -1 23 C-8.06408952 23.56968464 -8.06408952 23.56968464 -11.875 21.25 C-15.55688074 17.35153804 -16.50771018 14.53976767 -16.39453125 9.03515625 C-15.68647817 5.38272403 -13.62465368 3.56216192 -11 1 C-7.55359623 -0.72320188 -3.7757718 -0.3723512 0 0 Z " fill="#252222" transform="translate(105,155)"/>
<path d="M0 0 C0.99 0.495 0.99 0.495 2 1 C1.67 1.33 1.34 1.66 1 2 C17.22889085 2.02335518 33.45777625 2.04099207 49.68667984 2.05181217 C57.22195243 2.05696955 64.75721458 2.06400165 72.29248047 2.07543945 C78.85982926 2.0854033 85.42717049 2.09185749 91.99452662 2.09408849 C95.47222374 2.0953927 98.94989923 2.0984603 102.42758942 2.10573006 C106.30882677 2.11377766 110.19004292 2.11399004 114.07128906 2.11352539 C115.22575027 2.11712067 116.38021149 2.12071594 117.56965637 2.12442017 C118.62692429 2.1230455 119.6841922 2.12167084 120.77349854 2.12025452 C121.69160435 2.12117631 122.60971016 2.1220981 123.55563736 2.12304783 C125.98367278 2.08318153 125.98367278 2.08318153 128.20165634 1.42998409 C130 1 130 1 132 2 C134.40973615 2.12197488 136.79254882 2.18559594 139.20361328 2.20532227 C140.3159584 2.22017166 140.3159584 2.22017166 141.45077515 2.23532104 C143.90725488 2.26696363 146.36375397 2.29170431 148.8203125 2.31640625 C150.521398 2.3369734 152.22247836 2.35796981 153.92355347 2.37937927 C158.40500736 2.43462464 162.88650756 2.48402303 167.36804199 2.53222656 C171.93941377 2.5824236 176.51071813 2.63811904 181.08203125 2.69335938 C190.05462994 2.80097109 199.02728711 2.90240936 208 3 C208 3.33 208 3.66 208 4 C78.97 4 -50.06 4 -183 4 C-183 3.67 -183 3.34 -183 3 C-182.17909 2.99576806 -181.35818001 2.99153612 -180.51239395 2.98717594 C-160.54923681 2.88392686 -140.58611529 2.77529771 -120.62302017 2.66066074 C-110.96907004 2.60535358 -101.31511621 2.55187567 -91.66113281 2.50268555 C-83.24794129 2.45981303 -74.8347767 2.41352726 -66.42162681 2.36312145 C-61.96584914 2.33654526 -57.51007673 2.31169277 -53.05426788 2.29092598 C-48.86170018 2.27133217 -44.66918362 2.24718014 -40.47666168 2.21950912 C-38.93674652 2.21015324 -37.39682013 2.20247271 -35.85688782 2.19658089 C-33.75628139 2.18829483 -31.65579827 2.17401123 -29.55523682 2.15821838 C-27.79092505 2.14853956 -27.79092505 2.14853956 -25.99097061 2.1386652 C-23.09193943 2.10309489 -23.09193943 2.10309489 -20.7152977 1.42761135 C-19 1 -19 1 -17 2 C-10.92172504 2.42706834 -5.7307619 2.20413919 0 0 Z " fill="#B3AC1F" transform="translate(193,402)"/>
<path d="M0 0 C0 13.86 0 27.72 0 42 C-5.65543071 39.73782772 -5.65543071 39.73782772 -8.1875 36.1875 C-8.67605469 35.52105469 -9.16460937 34.85460937 -9.66796875 34.16796875 C-13.65494004 27.67890991 -13.71294285 21.45431385 -13 14 C-11.52487721 8.54116238 -6.35384104 0 0 0 Z " fill="#252222" transform="translate(512,251)"/>
<path d="M0 0 C3.11141288 1.6437653 5.28893717 3.03036886 7.375 5.875 C8.69601084 10.36643685 8.48383625 13.10144696 6.25 17.25 C3.08484 21.11852888 1.54156269 21.8001678 -3.375 22.4375 C-8.20918218 21.85406422 -9.63062001 20.44960332 -13 17 C-14.21762731 13.34711807 -14.39075851 10.84245864 -14 7 C-10.38566438 0.94463921 -6.9253044 -0.5771087 0 0 Z " fill="#292322" transform="translate(126,237)"/>
<path d="M0 0 C3.11141288 1.6437653 5.28893717 3.03036886 7.375 5.875 C8.54196618 9.84268502 8.47495641 12.86538192 6.875 16.6875 C4.47582284 19.64648516 2.60115926 20.75344487 -1 22 C-6.28640344 21.90725608 -9.25939154 20.74060846 -13 17 C-14.21762731 13.34711807 -14.39075851 10.84245864 -14 7 C-10.38566438 0.94463921 -6.9253044 -0.5771087 0 0 Z " fill="#272322" transform="translate(311,275)"/>
<path d="M0 0 C9.65517241 0 9.65517241 0 14 3 C16.69777197 7.16928396 16.55039883 12.19036099 16 17 C14.26768159 21.76387563 13.64201017 22.67899492 9 25 C6.03 25 3.06 25 0 25 C0 16.75 0 8.5 0 0 Z " fill="#CAE81D" transform="translate(207,439)"/>
<path d="M0 0 C5.59588314 -0.28944223 9.18669255 -0.20887163 14 3 C17.55074143 6.59872442 19.87126 9.50661598 20.3125 14.625 C20.22548122 19.41103266 18.9046906 23.18337165 16 27 C12.8840665 29.52107347 10.09188378 31 6 31 C6 21.1 6 11.2 6 1 C4.02 1 2.04 1 0 1 C0 0.67 0 0.34 0 0 Z " fill="#262322" transform="translate(355,300)"/>
<path d="M0 0 C2.64 0 5.28 0 8 0 C8 12.87 8 25.74 8 39 C5.36 39 2.72 39 0 39 C0 26.13 0 13.26 0 0 Z " fill="#474843" transform="translate(305,432)"/>
<path d="M0 0 C0.33 0.66 0.66 1.32 1 2 C2.7468811 1.92313965 2.7468811 1.92313965 4.52905273 1.84472656 C8.88383209 1.65891022 13.23927059 1.5018213 17.59545898 1.35302734 C19.47433606 1.28491583 21.35295447 1.20919936 23.23120117 1.12548828 C25.94416075 1.00593657 28.65689951 0.91452143 31.37109375 0.828125 C32.19959335 0.78560608 33.02809296 0.74308716 33.88169861 0.69927979 C39.93101024 0.54563439 44.80800371 1.8020615 50 5 C50.495 5.99 50.495 5.99 51 7 C32.19 7 13.38 7 -6 7 C-4.02 4.69 -2.04 2.38 0 0 Z " fill="#CC461B" transform="translate(262,398)"/>
<path d="M0 0 C3.55247432 0.87379409 4.94828114 2.4927342 6.9375 5.4765625 C7.61389058 8.49936996 7.39308841 10.28744363 6.9375 13.4765625 C5.06734906 15.90775873 3.65611655 17.11725423 0.9375 18.4765625 C-2.65954193 18.87623383 -4.63029887 18.6974653 -7.875 17.0390625 C-10.55264777 13.9023894 -11.09507139 11.73638791 -11.31640625 7.671875 C-11.0625 5.4765625 -11.0625 5.4765625 -9.125 2.4140625 C-5.76889781 0.29081417 -3.89918712 -0.28062332 0 0 Z " fill="#272322" transform="translate(214.0625,83.5234375)"/>
<path d="M0 0 C3.66711088 1.83355544 4.5600021 2.31672233 6.6875 5.4375 C7.10386719 6.03433594 7.52023438 6.63117188 7.94921875 7.24609375 C10.70336982 11.84317118 10.5604165 16.81806663 10 22 C8.42520312 26.78966719 5.97159564 30.82272349 2 34 C1.34 34 0.68 34 0 34 C0 22.78 0 11.56 0 0 Z " fill="#272322" transform="translate(0,223)"/>
<path d="M0 0 C1.16959987 0.97566112 2.33561177 1.955625 3.5 2.9375 C4.47453125 3.75541016 4.47453125 3.75541016 5.46875 4.58984375 C5.9740625 5.05519531 6.479375 5.52054687 7 6 C7 6.33 7 6.66 7 7 C-9.17 7 -25.34 7 -42 7 C-36.14992782 2.31994226 -34.22873077 1.85395852 -27.1484375 1.90234375 C-26.37440582 1.9037587 -25.60037415 1.90517365 -24.80288696 1.90663147 C-22.32688558 1.91223597 -19.85097412 1.92478917 -17.375 1.9375 C-15.69791797 1.94251442 -14.02083453 1.94707743 -12.34375 1.95117188 C-8.22913194 1.96220685 -4.11458122 1.97947446 0 2 C0 1.34 0 0.68 0 0 Z " fill="#CD461C" transform="translate(233,398)"/>
<path d="M0 0 C10.68587896 -0.62247839 10.68587896 -0.62247839 15.5625 1.6875 C18.99363816 4.94268236 20.86603881 6.89234398 21.17578125 11.765625 C21.18636658 14.51781094 21.12998029 17.25115752 21 20 C20.01 19.67 19.02 19.34 18 19 C17.30959426 17.34302621 16.6469365 15.6744239 16 14 C11.78649915 7.75777652 6.25007391 3.94514178 -1 2 C-0.67 1.34 -0.34 0.68 0 0 Z " fill="#2F2A29" transform="translate(190,345)"/>
<path d="M0 0 C0.33 0 0.66 0 1 0 C1 2.31 1 4.62 1 7 C2.13260254 6.97643433 2.13260254 6.97643433 3.28808594 6.95239258 C6.77531157 6.88926452 10.26241633 6.85076502 13.75 6.8125 C15.53083984 6.77479492 15.53083984 6.77479492 17.34765625 6.73632812 C25.34282932 6.67079392 32.35233378 7.66086899 40 10 C40 10.33 40 10.66 40 11 C26.47 11 12.94 11 -1 11 C-0.67 7.37 -0.34 3.74 0 0 Z " fill="#A43C1B" transform="translate(402,394)"/>
<path d="M0 0 C9.24 0 18.48 0 28 0 C22.79476647 5.20523353 20.62439564 7.0286047 13.5625 7.3125 C9.38434556 7.20821994 6.5315053 6.35433687 3 4 C2.01 2.68 1.02 1.36 0 0 Z " fill="#272322" transform="translate(258,0)"/>
<path d="M0 0 C0.49628906 0.38671875 0.99257812 0.7734375 1.50390625 1.171875 C5.84883147 4.50270951 10.18629161 7.39257462 15 10 C15 10.33 15 10.66 15 11 C7.08 11 -0.84 11 -9 11 C-6.75 5.375 -6.75 5.375 -3.375 2.6875 C-2.74335938 2.17574219 -2.11171875 1.66398437 -1.4609375 1.13671875 C-0.73777344 0.57404297 -0.73777344 0.57404297 0 0 Z " fill="#22201F" transform="translate(157,394)"/>
<path d="M0 0 C2.9375 1 2.9375 1 4.875 2.75 C5.9375 5 5.9375 5 5.8125 7.5625 C4.85987446 10.21624257 4.26809802 11.41852277 1.9375 13 C-0.5 13.4375 -0.5 13.4375 -3.0625 13 C-5.79501347 11.00600369 -6.89497946 9.8376027 -7.5625 6.5 C-6.65380376 1.95651882 -4.6604853 0 0 0 Z " fill="#302522" transform="translate(183.0625,138)"/>
<path d="M0 0 C4.59331946 5.74164932 6.53363965 10.37526886 6.40234375 17.80078125 C5.58926188 22.24510254 3.22783972 26.11719362 1 30 C0.67 30 0.34 30 0 30 C0 20.1 0 10.2 0 0 Z " fill="#2F2522" transform="translate(0,358)"/>
<path d="M0 0 C11.55 0.33 23.1 0.66 35 1 C30.71060984 5.28939016 24.44705981 6.20782501 18.5625 6.375 C11.51179178 6.16675123 5.07380498 5.07380498 0 0 Z " fill="#CBC9C8" transform="translate(163,399)"/>
<path d="M0 0 C10.89 0 21.78 0 33 0 C25.95305664 5.28520752 19.60200354 5.72131945 11 5 C7.54819861 4.29508667 4.21118461 3.46758542 1 2 C0.67 1.34 0.34 0.68 0 0 Z " fill="#CFC8C6" transform="translate(314,400)"/>
<path d="M0 0 C3.90401786 1.80803571 3.90401786 1.80803571 5.0625 4.125 C-3.8475 4.125 -12.7575 4.125 -21.9375 4.125 C-15.27569051 -2.53680949 -8.48567301 -3.59630904 0 0 Z " fill="#251E1B" transform="translate(307.9375,400.875)"/>
<path d="M0 0 C0.66 0.33 1.32 0.66 2 1 C1.67 1.33 1.34 1.66 1 2 C16.84 2.33 32.68 2.66 49 3 C49 3.33 49 3.66 49 4 C17.98 4 -13.04 4 -45 4 C-45 3.67 -45 3.34 -45 3 C-44.35450195 2.97494385 -43.70900391 2.9498877 -43.04394531 2.92407227 C-40.11244106 2.80785567 -37.18123783 2.68524558 -34.25 2.5625 C-33.23421875 2.52318359 -32.2184375 2.48386719 -31.171875 2.44335938 C-30.1921875 2.40146484 -29.2125 2.35957031 -28.203125 2.31640625 C-27.30239258 2.27974854 -26.40166016 2.24309082 -25.47363281 2.20532227 C-23.02189864 2.07446064 -23.02189864 2.07446064 -20.79980469 1.41772461 C-19 1 -19 1 -17 2 C-10.92172504 2.42706834 -5.7307619 2.20413919 0 0 Z " fill="#CBAC28" transform="translate(193,402)"/>
<path d="M0 0 C5 1 5 1 6.8125 2.625 C8.50860361 6.01720722 8.52560443 8.25506845 8 12 C5.6875 14.9375 5.6875 14.9375 3 17 C2.01 17 1.02 17 0 17 C0 11.39 0 5.78 0 0 Z " fill="#282322" transform="translate(316,144)"/>
<path d="M0 0 C0.33 0 0.66 0 1 0 C1 9.57 1 19.14 1 29 C-3.65182903 24.34817097 -4.30402187 20.61240138 -4.375 14.125 C-4.31231675 8.15755471 -3.60145555 4.72691041 0 0 Z " fill="#272322" transform="translate(511,124)"/>
<path d="M0 0 C0.33 1.65 0.66 3.3 1 5 C-6.92 5 -14.84 5 -23 5 C-15.73028503 0.15352336 -8.57238313 -0.43262494 0 0 Z " fill="#CC4C23" transform="translate(360,400)"/>
<path d="M0 0 C2.4375 0.75 2.4375 0.75 4.4375 2.75 C4.6875 5.25 4.6875 5.25 4.4375 7.75 C2.4375 9.75 2.4375 9.75 -0.5625 10 C-3.5625 9.75 -3.5625 9.75 -5.5625 7.75 C-5.875 4.75 -5.875 4.75 -5.5625 1.75 C-2.5625 -0.25 -2.5625 -0.25 0 0 Z " fill="#2B2422" transform="translate(286.5625,199.25)"/>
<path d="M0 0 C0.66 0.33 1.32 0.66 2 1 C2.8515625 3.8359375 2.8515625 3.8359375 3.625 7.375 C3.88539063 8.53773438 4.14578125 9.70046875 4.4140625 10.8984375 C5 14 5 14 5 17 C2.03 17 -0.94 17 -4 17 C-2.68 11.39 -1.36 5.78 0 0 Z " fill="#BFDA20" transform="translate(165,439)"/>
<path d="M0 0 C2 2 2 2 2.15234375 3.98828125 C1.75597675 8.27625149 1.38258919 10.50366808 -1.3125 14 C-3.70671053 15.78173807 -5.07838001 16.67537556 -8 17 C-7.41734728 12.57676318 -5.73233789 9.4844136 -3.4375 5.6875 C-2.79683594 4.61886719 -2.15617187 3.55023438 -1.49609375 2.44921875 C-1.00238281 1.64097656 -0.50867188 0.83273438 0 0 Z " fill="#3F3633" transform="translate(378,177)"/>
<path d="M0 0 C1.65 0.33 3.3 0.66 5 1 C5.625 3.375 5.625 3.375 6 6 C5.34 6.66 4.68 7.32 4 8 C1.375 7.625 1.375 7.625 -1 7 C-1.625 5.1875 -1.625 5.1875 -2 3 C-1.34 2.01 -0.68 1.02 0 0 Z " fill="#372722" transform="translate(202,222)"/>
<path d="M0 0 C3.3 0 6.6 0 10 0 C10 1.65 10 3.3 10 5 C6.7 5 3.4 5 0 5 C0 3.35 0 1.7 0 0 Z " fill="#CB451B" transform="translate(0,400)"/>
<path d="M0 0 C3.24745514 4.13312472 5 6.63932628 5 12 C2.3668037 11.63680051 1.15568678 11.14494976 -0.8125 9.3125 C-2.4184305 6.18516166 -1.88857089 4.33214082 -1 1 C-0.67 0.67 -0.34 0.34 0 0 Z " fill="#403532" transform="translate(147,191)"/>
<path d="M0 0 C0.804375 0.144375 1.60875 0.28875 2.4375 0.4375 C6.61359481 1.09688339 10.79598059 1.56091353 15 2 C15 2.33 15 2.66 15 3 C2.79 3 -9.42 3 -22 3 C-22 2.67 -22 2.34 -22 2 C-14.74 1.67 -7.48 1.34 0 1 C0 0.67 0 0.34 0 0 Z " fill="#92A231" transform="translate(170,403)"/>
<path d="M0 0 C3.37726321 0.48246617 5.32924983 1.42775723 8.0625 3.4375 C8.0625 3.7675 8.0625 4.0975 8.0625 4.4375 C3.1125 4.4375 -1.8375 4.4375 -6.9375 4.4375 C-2.9375 0.4375 -2.9375 0.4375 0 0 Z " fill="#48352F" transform="translate(225.9375,296.5625)"/>
<path d="M0 0 C7.10054603 0.25680094 12.09755529 0.93387143 18 5 C18 5.33 18 5.66 18 6 C9.92727273 6.40363636 9.92727273 6.40363636 6 3 C4.01985568 2.27648573 2.02178685 1.59734611 0 1 C0 0.67 0 0.34 0 0 Z " fill="#C8471E" transform="translate(303,399)"/>
<path d="M0 0 C1.97656335 0.31521179 3.9369525 0.72734234 5.89453125 1.14453125 C6.22453125 1.80453125 6.55453125 2.46453125 6.89453125 3.14453125 C2.60453125 3.14453125 -1.68546875 3.14453125 -6.10546875 3.14453125 C-2.10546875 0.14453125 -2.10546875 0.14453125 0 0 Z " fill="#392722" transform="translate(130.10546875,102.85546875)"/>
<path d="M0 0 C0.99 0.33 1.98 0.66 3 1 C5.39254576 1.22560676 7.78928123 1.40848595 10.1875 1.5625 C12.09595703 1.68818359 12.09595703 1.68818359 14.04296875 1.81640625 C15.01878906 1.87699219 15.99460937 1.93757813 17 2 C17 2.33 17 2.66 17 3 C10.73 3 4.46 3 -2 3 C-1.34 2.01 -0.68 1.02 0 0 Z " fill="#EF5221" transform="translate(471,397)"/>
<path d="M0 0 C1 4 1 4 -0.9375 7.25 C-1.618125 8.1575 -2.29875 9.065 -3 10 C-3.66 9.67 -4.32 9.34 -5 9 C-3.35 6.03 -1.7 3.06 0 0 Z " fill="#504744" transform="translate(347,233)"/>
</svg>
